<svg width="14" height="15" viewBox="0 0 14 15" fill="none" xmlns="http://www.w3.org/2000/svg">
<rect x="3" y="4.31812" width="2" height="10.1818" rx="1" fill="#050505"/>
<rect x="3" y="4.31812" width="2" height="10.1818" rx="1" fill="#050505"/>
<rect x="3" y="4.31812" width="2" height="10.1818" rx="1" fill="#050505"/>
<rect y="5.59082" width="2" height="8.90909" rx="1" fill="#050505"/>
<rect y="5.59082" width="2" height="8.90909" rx="1" fill="#050505"/>
<rect y="5.59082" width="2" height="8.90909" rx="1" fill="#050505"/>
<rect x="6" y="3.04541" width="2" height="11.4545" rx="1" fill="#050505"/>
<rect x="6" y="3.04541" width="2" height="11.4545" rx="1" fill="#050505"/>
<rect x="6" y="3.04541" width="2" height="11.4545" rx="1" fill="#050505"/>
<rect x="9" y="1.77271" width="2" height="12.7273" rx="1" fill="#050505"/>
<rect x="9" y="1.77271" width="2" height="12.7273" rx="1" fill="#050505"/>
<rect x="9" y="1.77271" width="2" height="12.7273" rx="1" fill="#050505"/>
<rect x="12" y="0.5" width="2" height="14" rx="1" fill="#BDBBBB"/>
</svg>
